<svg width="100" height="101" viewBox="0 0 100 101" fill="none" xmlns="http://www.w3.org/2000/svg">
<rect width="100" height="100" fill="#D5F2F6"/>
<path d="M30.6816 58.0391H14.5439L10.8818 68H7.73242L21.1846 32.4531H24.041L37.4932 68H34.3682L30.6816 58.0391ZM15.4717 55.4756H29.7295L22.6006 36.1152L15.4717 55.4756Z" fill="black"/>
<path d="M81.8906 65.0625H56.0703L50.2109 81H45.1719L66.6953 24.125H71.2656L92.7891 81H87.7891L81.8906 65.0625ZM57.5547 60.9609H80.3672L68.9609 29.9844L57.5547 60.9609Z" fill="black"/>
<rect x="11.2249" y="77" width="80" height="1" transform="rotate(13 11.2249 77)" fill="black"/>
<rect x="11" y="23.9961" width="80" height="1" transform="rotate(-13 11 23.9961)" fill="black"/>
</svg>
